<svg fill="none" height="68" viewBox="0 0 64 68" width="64" xmlns="http://www.w3.org/2000/svg"><g fill="#4d5566"><path d="m42.5349 1.33561v12.33389l-7.1414 7.5366v-12.36112l7.1142-7.50937c-3.2982-.844979-6.828-1.33561-10.5077-1.33561-17.6763 0-32 10.5758-32 23.6184 0 10.2215 8.80409 18.9029 21.1107 22.1874v-12.1295l7.1414-7.5366v12.3612l-6.9642 7.3594c3.3526.8859 6.9506 1.3901 10.7121 1.3901 17.6763 0 32-10.5758 32-23.6184 0-10.3168-8.9813-19.06641-21.4651-22.28277zm-21.4242 19.88419v-12.37482l7.1414-7.53663v12.36115l-7.1414 7.5366zm14.2828 12.4156-7.1414-7.5366v-12.3611l7.1414 7.5366z"/><path d="m31.8656 63.2777s-.109 0-.1636 0c-.9267-3.4344-1.8398-6.8824-2.7529-10.276h-1.8944v13.9421h1.8944v-6.1329h.1499c.5451 2.0443 1.0903 4.0886 1.649 6.1602h2.058c.5587-2.0716 1.1175-4.1295 1.6627-6.1874.0681 0 .1226.0272.1908.0409v6.1465h1.8126v-13.9557h-1.8535c-.9268 3.4616-1.8399 6.8824-2.7666 10.3032z"/><path d="m48.5042 54.9915c.2726-.0409.5452-.0682.9268-.1227-.5588-.8041-1.0086-1.4719-1.4583-2.1124-4.2112.6542-7.1278 4.1295-6.7734 8.0136.3407 3.7343 4.2657 6.1057 6.8552 6.1874.4225-.6678.8722-1.3356 1.3492-2.0852-.3543-.0272-.586-.0545-.8313-.0817-1.2266-.1363-2.3305-.5724-3.2982-1.322-1.8943-1.4719-2.3305-3.8705-1.0357-5.8331 1.0085-1.5264 2.4804-2.3305 4.2521-2.6303z"/><path d="m22.2427 52.9881h-2.3578c0 1.649.0681 3.2436-.0273 4.8109-.0681 1.2402-.2316 2.5077-.5724 3.6933-.586 2.0171-1.908 3.2573-4.1158 3.3799-.0409 0-.0681.0546-.1635.1227.327.6678.6678 1.3492 1.063 2.1261.5179-.15 1.0085-.2317 1.4583-.4089 2.3168-.8995 3.5161-2.7393 4.1976-5.0017.8586-2.862.3816-5.7922.5179-8.7223z"/></g></svg>